<svg xmlns="http://www.w3.org/2000/svg" xmlns:xlink="http://www.w3.org/1999/xlink" viewBox="0 0 100 125" version="1.1" x="0px" y="0px"><title>Delete 16.5</title><desc>Created with Sketch.</desc><g stroke="none" stroke-width="1" fill="none" fill-rule="evenodd"><g fill="#000000"><path d="M38,68 L62,68 L62,40 L38,40 L38,68 Z M64,34 L64,38 L36,38 L36,34 L43,34 L45,32 L55,32 L57,34 L64,34 Z M43,44.5 L45,44.5 L45,63.5 L43,63.5 L43,44.5 Z M49,44.5 L51,44.5 L51,63.5 L49,63.5 L49,44.5 Z M55,44.5 L57,44.5 L57,63.5 L55,63.5 L55,44.5 Z"/></g></g><text x="0" y="115" fill="#000000" font-size="5px" font-weight="bold" font-family="'Helvetica Neue', Helvetica, Arial-Unicode, Arial, Sans-serif">Created by Landan Lloyd</text><text x="0" y="120" fill="#000000" font-size="5px" font-weight="bold" font-family="'Helvetica Neue', Helvetica, Arial-Unicode, Arial, Sans-serif">from the Noun Project</text></svg>